# Blender v2.74 (sub 0) OBJ File: ''
# www.blender.org
mtllib island-cloud-mod.mtl
o cloud.001_cloud
v -24.969975 5.811558 4.188510
v 12.754520 -2.920463 5.699479
v -30.987732 -2.806511 -17.008438
v 12.495682 -11.995380 -16.976147
v -19.049267 55.508419 6.930621
v 3.274946 83.965347 6.868088
v -22.007574 66.790749 -25.179144
v -0.231064 90.916031 -26.485420
v -32.766685 -3.374034 -50.616478
v 12.752455 -12.341816 -54.217663
v -24.151499 67.076576 -51.810303
v 1.207468 89.846352 -54.573601
v -25.418112 1.842045 -81.980362
v 14.382365 -6.365823 -82.452629
v -22.077387 55.365292 -79.426590
v 3.590492 76.919350 -83.262001
v -30.042171 21.032520 6.195710
v -49.491146 23.191875 -16.986811
v -29.106524 41.269417 6.606726
v -46.203381 55.300491 -19.052225
v -56.149780 23.727135 -41.812065
v -49.610603 56.908882 -45.363773
v -46.536465 25.124292 -73.781563
v -46.019745 48.306431 -65.916527
v 47.243774 9.501166 1.436221
v 48.449268 0.977470 -18.554476
v 43.788914 72.520508 3.876902
v 49.225426 78.440498 -26.590221
v 47.861454 0.404541 -53.607700
v 48.153267 78.485649 -54.044014
v 46.981804 10.834960 -83.305984
v 42.692989 66.433716 -81.985886
v 58.352425 19.331789 0.298208
v 57.575153 6.833734 -17.546881
v 61.968864 48.709137 -1.988410
v 58.894424 54.336781 -26.434464
v 54.861004 5.341500 -52.075253
v 59.933880 54.466434 -54.338352
v 55.391396 9.647375 -82.116684
v 57.801086 46.395569 -81.853714
v 73.693192 24.047691 -1.421211
v 80.466560 8.274203 -21.708281
v 74.065651 51.495483 -5.450885
v 81.203049 60.269493 -28.547216
v 82.619606 6.530302 -47.503120
v 82.118614 59.409363 -50.916061
v 80.978615 14.861803 -73.662109
v 79.114288 43.664288 -73.960182
v 88.620903 32.745441 -8.710433
v 101.098564 22.142422 -29.004337
v 87.071365 46.320885 -11.030551
v 99.399666 52.111950 -29.988007
v 102.321663 21.787962 -44.527580
v 101.190598 50.299133 -46.952076
v 92.608971 22.652431 -62.162319
v 92.315361 37.868752 -66.024780
v -17.563633 16.595669 -98.999756
v 12.276768 18.814817 -106.051003
v -17.006054 42.041866 -97.624275
v 10.005878 48.888618 -103.231529
v 35.406002 32.100658 -101.405563
v 30.788830 46.258232 -104.317459
v -18.801891 27.211885 26.132229
v 9.714363 30.989927 41.344723
v -17.823824 44.568428 20.411173
v 8.194545 62.806992 35.407314
v 44.787300 32.128403 33.347347
v 42.174492 54.469418 31.239454
v 56.355293 29.592031 12.545834
v 59.017159 44.527309 8.809404
vt 0.802944 0.252333
vt 0.840879 0.395999
vt 0.566761 0.395780
vt 0.565129 0.242092
vt 0.766253 0.604520
vt 0.765829 0.787879
vt 0.539770 0.832665
vt 0.548623 0.677216
vt 0.235940 0.422195
vt 0.415706 0.446538
vt 0.406125 0.651547
vt 0.242106 0.534029
vt 0.339757 0.457850
vt 0.477303 0.389530
vt 0.483970 0.582635
vt 0.355482 0.545321
vt 0.568141 0.368089
vt 0.756254 0.353791
vt 0.752739 0.517750
vt 0.582456 0.561866
vt 0.604148 0.396292
vt 0.761272 0.382379
vt 0.764057 0.512773
vt 0.590149 0.603180
vt 0.852094 0.623783
vt 0.565142 0.648191
vt 0.349397 0.825772
vt 0.362079 0.650603
vt 0.202216 0.631874
vt 0.215731 0.451377
vt 0.582514 0.387246
vt 0.598947 0.570955
vt 0.411818 0.613544
vt 0.435890 0.399741
vt 0.805769 0.836358
vt 0.554867 0.839558
vt 0.272518 0.558115
vt 0.219211 0.408744
vt 0.377101 0.845044
vt 0.215291 0.819049
vt 0.702037 0.392817
vt 0.728215 0.490861
vt 0.604001 0.228775
vt 0.747667 0.284304
vt 0.234380 0.233747
vt 0.063201 0.409851
vt 0.063201 0.603180
vt 0.170980 0.512773
vt 0.234380 0.604520
vt 0.197056 0.284304
vt 0.165081 0.382379
vt 0.784709 0.603598
vt 0.805769 0.258727
vt 0.938898 0.408744
vt 0.935641 0.558115
vt 0.376217 0.225118
vt 0.041722 0.588182
vt 0.163642 0.258727
vt 0.064359 0.727482
vt 0.340110 0.406477
vt 0.347710 0.270986
vt 0.353010 0.460230
vt 0.375112 0.234171
vt 0.630511 0.254444
vt 0.664783 0.460941
vt 0.636805 0.453874
vt 0.620334 0.597825
vt 0.451441 0.544918
vt 0.422334 0.453695
vt 0.343816 0.644057
vt 0.658024 0.647014
vt 0.349361 0.845342
vt 0.623603 0.836395
vt 0.282581 0.399648
vt 0.277681 0.278700
vt 0.460941 0.752280
vt 0.254444 0.714135
vt 0.294197 0.560710
vt 0.459885 0.596971
vt 0.068990 0.597825
vt 0.054703 0.453874
vt 0.195689 0.437531
vt 0.221013 0.533765
vt 0.299691 0.633670
vt 0.647014 0.752571
vt 0.649009 0.597806
vt 0.296347 0.837281
vt 0.349361 0.316672
vt 0.376397 0.674916
vt 0.281156 0.545803
vt 0.296347 0.309020
vt 0.836395 0.674916
vt 0.835499 0.545803
vt 0.138274 0.427852
vt 0.180973 0.290353
vt 0.725736 0.459885
vt 0.745117 0.294197
vt 0.821375 0.317665
vt 0.866369 0.474205
vt 0.745117 0.560710
vt 0.722319 0.371420
vt 0.819027 0.401807
vt 0.821375 0.578663
vt 0.124701 0.602682
vt 0.732289 0.649009
vt 0.872141 0.625813
vt 0.135046 0.779979
vt 0.146798 0.528204
vt 0.135046 0.342619
vt 0.718844 0.835499
vt 0.853202 0.781999
vt 0.861726 0.300172
vt 0.991790 0.389530
vt 0.913131 0.457850
vt 0.903363 0.355482
vt 0.981080 0.483970
vt 0.903363 0.545321
vt 0.000499 0.582514
vt 0.008210 0.477303
vt 0.992370 0.598947
vt 0.602682 0.288936
vt 0.779979 0.342619
vt 0.061728 0.702037
vt 0.063579 0.490861
vt 0.007630 0.570955
vt 0.554867 0.205841
vt 0.180951 0.603598
vt 0.057613 0.517750
vt 0.048291 0.353791
vt 0.622899 0.742479
vt 0.417544 0.980391
vt 0.247261 0.942387
vt 0.845342 0.316672
vt 0.968015 0.453695
vt 0.987751 0.544918
vt 0.584294 0.000499
vt 0.857620 0.534029
vt 0.959259 0.651547
vt 0.896395 0.422195
vt 0.363195 0.054703
vt 0.434871 0.228041
vt 0.406125 0.040741
vt 0.620334 0.068990
vt 0.652290 0.308078
vt 0.709729 0.437531
vt 0.270986 0.308078
vt 0.278700 0.371420
vn -0.199500 -0.894700 0.399600
vn -0.188400 -0.890000 0.415300
vn -0.211600 -0.899500 0.382200
vn -0.223800 -0.904000 0.364300
vn -0.738500 0.626900 0.248400
vn -0.769600 0.604200 0.206800
vn -0.738600 0.626800 0.248200
vn -0.701800 0.649400 0.292800
vn -0.552900 0.209200 0.806600
vn -0.480400 0.138700 0.866000
vn -0.527900 0.184400 0.829000
vn -0.618200 0.277300 0.735500
vn 0.838500 0.117900 0.532100
vn 0.864900 0.065400 0.497600
vn 0.844400 0.106800 0.525000
vn 0.795800 0.189200 0.575300
vn -0.226800 0.066600 -0.971700
vn -0.233600 0.057600 -0.970600
vn -0.227300 0.065900 -0.971600
vn -0.220800 0.074500 -0.972500
vn -0.785000 0.084100 0.613800
vn -0.764900 0.022300 0.643800
vn -0.780800 0.070100 0.620900
vn -0.794800 0.119700 0.595000
vn -0.206700 -0.978000 0.027500
vn -0.192700 -0.981200 0.007800
vn -0.742500 0.666800 -0.063400
vn -0.663100 0.746000 0.061400
vn 0.995300 0.059000 0.077100
vn 0.993900 0.047900 0.099800
vn -0.984900 0.109500 0.134200
vn -0.942500 0.213300 0.257400
vn -0.204900 -0.956600 -0.207100
vn -0.199700 -0.956200 -0.213900
vn -0.957900 0.163500 -0.235800
vn -0.952500 0.116700 -0.281300
vn -0.645200 0.675100 -0.357800
vn -0.633800 0.693900 -0.341900
vn 0.875800 -0.006300 -0.482700
vn 0.922400 -0.078200 -0.378200
vn -0.860700 -0.337100 0.381400
vn -0.689400 -0.491100 0.532600
vn -0.331900 0.880000 0.339800
vn -0.626600 0.427800 0.651400
vn 0.055000 -0.061500 0.996600
vn 0.281900 -0.032500 0.958900
vn -0.299000 0.064100 -0.952100
vn -0.533200 0.282400 -0.797400
vn -0.813600 -0.579100 0.052800
vn -0.715900 -0.675300 0.177500
vn -0.362000 0.931300 0.039100
vn -0.404100 0.908400 0.107900
vn -0.770300 -0.574900 -0.276100
vn -0.759200 -0.599000 -0.254500
vn -0.451200 0.808900 -0.376900
vn -0.426000 0.805700 -0.411600
vn 0.331700 -0.877100 0.347200
vn 0.354500 -0.852200 0.384800
vn 0.279400 0.945400 0.167600
vn 0.238700 0.944400 0.226100
vn 0.212500 0.189100 0.958700
vn 0.147600 0.110000 0.982900
vn -0.040600 0.090200 -0.995100
vn 0.257800 -0.113300 -0.959500
vn 0.341100 -0.940000 0.011100
vn 0.339800 -0.940500 0.009700
vn 0.244500 0.969400 -0.024400
vn 0.235300 0.971900 -0.007600
vn 0.457500 -0.874900 -0.158800
vn 0.328100 -0.888200 -0.321700
vn 0.221100 0.895900 -0.385300
vn 0.247400 0.871200 -0.424100
vn 0.472600 -0.800000 0.369600
vn 0.622500 -0.653500 0.430600
vn 0.798400 0.548200 0.249000
vn 0.927700 0.372000 -0.031000
vn 0.872000 0.146100 0.467100
vn 0.801100 0.006900 0.598500
vn 0.575800 -0.817600 0.003700
vn 0.540500 -0.841300 -0.006100
vn 0.927600 0.371900 -0.035600
vn 0.897400 0.439700 0.035500
vn -0.086500 -0.940800 -0.327800
vn 0.588400 -0.801800 -0.104500
vn 0.044800 0.027200 -0.998600
vn 0.139700 -0.002100 -0.990200
vn 0.841300 0.416800 -0.344200
vn 0.777500 0.584700 -0.231800
vn 0.153400 -0.812500 0.562400
vn 0.289500 -0.706400 0.645900
vn -0.152200 0.958800 0.239900
vn -0.220900 0.932400 0.286000
vn 0.091000 0.066100 0.993600
vn 0.243100 0.137700 0.960200
vn 0.036100 -0.998500 0.040300
vn 0.075900 -0.994400 0.073600
vn -0.257500 0.966300 -0.005100
vn -0.210500 0.976500 -0.046200
vn 0.240100 -0.961500 -0.133600
vn 0.091200 -0.947200 -0.307400
vn 0.345500 -0.015900 -0.938300
vn 0.311800 0.010400 -0.950100
vn -0.170500 0.949000 -0.265100
vn 0.307100 0.766700 -0.563900
vn 0.578700 -0.538900 0.612200
vn 0.597300 -0.498900 0.627900
vn 0.488200 0.755000 0.437700
vn 0.388500 0.779800 0.490900
vn 0.373000 0.129800 0.918700
vn 0.452500 0.200200 0.869000
vn 0.599100 -0.793900 0.103700
vn 0.572200 -0.817700 0.063800
vn 0.407800 0.912900 -0.018400
vn 0.438900 0.897200 -0.049500
vn 0.699900 -0.666700 -0.256200
vn 0.603600 -0.707800 -0.367100
vn 0.523100 0.025000 -0.851900
vn 0.744300 -0.150800 -0.650600
vn 0.451200 0.708400 -0.542800
vn 0.596200 0.516900 -0.614300
vn -0.154600 -0.710100 -0.686900
vn -0.119100 -0.684200 -0.719500
vn -0.945300 0.074200 -0.317700
vn -0.920300 0.041200 -0.389000
vn -0.478600 0.434200 -0.763200
vn -0.311300 0.723300 -0.616300
vn 0.203000 0.670300 -0.713800
vn 0.031700 0.584700 -0.810600
vn 0.879300 0.079000 -0.469600
vn 0.811000 0.148100 -0.566100
vn 0.316300 -0.634500 -0.705200
vn 0.416000 -0.447400 -0.791700
vn -0.193200 -0.719000 0.667600
vn -0.292900 -0.642100 0.708500
vn -0.682100 0.536200 0.497200
vn -0.671000 0.535600 0.512700
vn -0.979500 0.107300 0.170700
vn -0.976500 0.115100 0.182200
vn 0.341000 -0.754300 0.561100
vn 0.179300 -0.705100 0.686100
vn 0.265000 0.795900 0.544400
vn 0.262400 0.798300 0.542100
vn 0.572700 -0.580100 0.579300
vn 0.690800 -0.563700 0.452900
vn 0.778600 0.501700 0.376900
vn 0.796400 0.457900 0.395000
vn 0.968900 -0.101700 0.225500
vn 0.962400 -0.109400 0.248500
usemtl cloud
s 1
f 1/1/1 3/2/2 4/3/3
f 4/3/3 2/4/4 1/1/1
f 5/5/5 6/6/6 8/7/7
f 8/7/7 7/8/8 5/5/5
f 63/9/9 64/10/10 66/11/11
f 66/11/11 65/12/12 63/9/9
f 49/13/13 50/14/14 52/15/15
f 52/15/15 51/16/16 49/13/13
f 58/17/17 57/18/18 59/19/19
f 59/19/19 60/20/20 58/17/17
f 18/21/21 17/22/22 19/23/23
f 19/23/23 20/24/24 18/21/21
f 4/3/25 3/2/25 9/25/25
f 9/25/26 10/26/26 4/3/26
f 7/8/27 8/7/27 12/27/27
f 12/28/28 11/29/28 7/30/28
f 52/15/29 50/14/29 53/31/29
f 53/31/30 54/32/30 52/15/30
f 18/21/31 20/24/31 22/33/31
f 22/33/32 21/34/32 18/21/32
f 10/26/33 9/25/33 13/35/33
f 13/35/34 14/36/34 10/26/34
f 21/34/35 22/33/35 24/37/35
f 24/37/36 23/38/36 21/34/36
f 11/29/37 12/28/37 16/39/37
f 16/39/38 15/40/38 11/29/38
f 54/32/39 53/31/39 55/41/39
f 55/41/40 56/42/40 54/32/40
f 3/43/41 1/44/41 17/22/41
f 17/22/42 18/21/42 3/43/42
f 5/45/43 7/30/43 20/46/43
f 20/47/44 19/48/44 5/49/44
f 1/50/45 5/49/45 19/48/45
f 19/48/46 17/51/46 1/50/46
f 15/52/47 13/53/47 23/54/47
f 23/54/48 24/55/48 15/52/48
f 9/56/49 3/43/49 18/21/49
f 18/21/50 21/34/50 9/56/50
f 7/30/51 11/29/51 22/57/51
f 22/57/52 20/46/52 7/30/52
f 13/58/53 9/56/53 21/34/53
f 21/34/54 23/38/54 13/58/54
f 11/29/55 15/40/55 24/59/55
f 24/59/56 22/57/56 11/29/56
f 2/4/57 4/3/57 26/60/57
f 26/60/58 25/61/58 2/4/58
f 8/62/59 6/63/59 27/64/59
f 27/64/60 28/65/60 8/62/60
f 66/11/61 64/10/61 67/66/61
f 67/66/62 68/67/62 66/11/62
f 58/17/63 60/20/63 62/68/63
f 62/68/64 61/69/64 58/17/64
f 4/3/65 10/26/65 29/70/65
f 29/70/66 26/60/66 4/3/66
f 12/28/67 8/62/67 28/65/67
f 28/65/68 30/71/68 12/28/68
f 10/26/69 14/36/69 31/72/69
f 31/72/70 29/70/70 10/26/70
f 16/39/71 12/28/71 30/71/71
f 30/71/72 32/73/72 16/39/72
f 25/61/73 26/60/73 34/74/73
f 34/74/74 33/75/74 25/61/74
f 28/76/75 27/77/75 35/78/75
f 35/78/76 36/79/76 28/76/76
f 68/80/77 67/81/77 69/82/77
f 69/82/78 70/83/78 68/80/78
f 26/60/79 29/70/79 37/84/79
f 37/84/80 34/74/80 26/60/80
f 30/85/81 28/76/81 36/79/81
f 36/79/82 38/86/82 30/85/82
f 29/70/83 31/72/83 39/87/83
f 39/87/84 37/84/84 29/70/84
f 31/88/85 32/89/85 40/90/85
f 40/90/86 39/91/86 31/88/86
f 32/92/87 30/85/87 38/86/87
f 38/86/88 40/93/88 32/92/88
f 33/75/89 34/74/89 42/94/89
f 42/94/90 41/95/90 33/75/90
f 36/96/91 35/97/91 43/98/91
f 43/98/92 44/99/92 36/96/92
f 35/100/93 33/101/93 41/102/93
f 41/102/94 43/103/94 35/100/94
f 34/74/95 37/84/95 45/104/95
f 45/104/96 42/94/96 34/74/96
f 38/105/97 36/96/97 44/99/97
f 44/99/98 46/106/98 38/105/98
f 37/84/99 39/87/99 47/107/99
f 47/107/100 45/104/100 37/84/100
f 39/91/101 40/90/101 48/108/101
f 48/108/102 47/109/102 39/91/102
f 40/110/103 38/105/103 46/106/103
f 46/106/104 48/111/104 40/110/104
f 41/102/105 42/112/105 50/113/105
f 50/113/106 49/114/106 41/102/106
f 44/99/107 43/98/107 51/115/107
f 51/115/108 52/116/108 44/99/108
f 43/103/109 41/102/109 49/114/109
f 49/114/110 51/117/110 43/103/110
f 42/94/111 45/104/111 53/118/111
f 53/118/112 50/119/112 42/94/112
f 46/106/113 44/99/113 52/116/113
f 52/116/114 54/120/114 46/106/114
f 45/121/115 47/122/115 55/41/115
f 55/123/116 53/118/116 45/104/116
f 47/109/117 48/108/117 56/124/117
f 56/42/118 55/41/118 47/122/118
f 48/111/119 46/106/119 54/120/119
f 54/125/120 56/124/120 48/108/120
f 14/126/121 13/53/121 57/18/121
f 57/18/122 58/17/122 14/126/122
f 13/58/123 15/127/123 59/128/123
f 59/128/124 57/129/124 13/58/124
f 15/52/125 16/130/125 60/20/125
f 60/131/126 59/132/126 15/40/126
f 16/130/127 32/89/127 62/68/127
f 62/68/128 60/20/128 16/130/128
f 32/92/129 31/133/129 61/134/129
f 61/134/130 62/135/130 32/92/130
f 31/88/131 14/126/131 58/17/131
f 58/17/132 61/69/132 31/88/132
f 1/1/133 2/4/133 64/136/133
f 64/10/134 63/9/134 1/50/134
f 6/6/135 5/5/135 65/137/135
f 65/137/136 66/138/136 6/6/136
f 5/5/137 1/44/137 63/139/137
f 63/139/138 65/137/138 5/5/138
f 2/4/139 25/61/139 67/140/139
f 67/66/140 64/10/140 2/141/140
f 27/64/141 6/63/141 66/142/141
f 66/142/142 68/143/142 27/64/142
f 25/144/143 33/101/143 69/145/143
f 69/82/144 67/81/144 25/146/144
f 35/78/145 27/77/145 68/80/145
f 68/80/146 70/83/146 35/78/146
f 33/147/147 35/78/147 70/83/147
f 70/83/148 69/82/148 33/147/148
