{
  "accessors": [
    {
      "name": "Sun-Mesh_positions",
      "componentType": 5126,
      "count": 1679,
      "min": [
        -13.899999618530273,
        -13.899999618530273,
        -13.899999618530273
      ],
      "max": [
        13.899999618530273,
        13.899999618530273,
        13.899999618530273
      ],
      "type": "VEC3",
      "bufferView": 0,
      "byteOffset": 0
    },
    {
      "name": "Sun-Mesh_normals",
      "componentType": 5126,
      "count": 1679,
      "min": [
        -1,
        -1,
        -1
      ],
      "max": [
        1,
        1,
        1
      ],
      "type": "VEC3",
      "bufferView": 0,
      "byteOffset": 50052
    },
    {
      "name": "Sun-Mesh_texcoords",
      "componentType": 5126,
      "count": 1679,
      "min": [
        0,
        0
      ],
      "max": [
        1,
        1
      ],
      "type": "VEC2",
      "bufferView": 1,
      "byteOffset": 0
    },
    {
      "name": "Sun-Mesh_0_indices",
      "componentType": 5123,
      "count": 9360,
      "min": [
        0
      ],
      "max": [
        1678
      ],
      "type": "SCALAR",
      "bufferView": 2,
      "byteOffset": 0
    },
    {
      "name": "Chromosphere-Mesh_positions",
      "componentType": 5126,
      "count": 623,
      "min": [
        -14.5,
        -14.5,
        -14.5
      ],
      "max": [
        14.5,
        14.5,
        14.5
      ],
      "type": "VEC3",
      "bufferView": 0,
      "byteOffset": 20148
    },
    {
      "name": "Chromosphere-Mesh_normals",
      "componentType": 5126,
      "count": 623,
      "min": [
        -1,
        -1,
        -1
      ],
      "max": [
        1,
        1,
        1
      ],
      "type": "VEC3",
      "bufferView": 0,
      "byteOffset": 70200
    },
    {
      "name": "Chromosphere-Mesh_texcoords",
      "componentType": 5126,
      "count": 623,
      "min": [
        0,
        0
      ],
      "max": [
        1,
        1
      ],
      "type": "VEC2",
      "bufferView": 1,
      "byteOffset": 13432
    },
    {
      "name": "Chromosphere-Mesh_0_indices",
      "componentType": 5123,
      "count": 3312,
      "min": [
        0
      ],
      "max": [
        622
      ],
      "type": "SCALAR",
      "bufferView": 2,
      "byteOffset": 18720
    },
    {
      "name": "Inner_corona-Mesh_positions",
      "componentType": 5126,
      "count": 623,
      "min": [
        -15.90566635131836,
        -16.27896499633789,
        -16.33568000793457
      ],
      "max": [
        16.257450103759766,
        16.152360916137695,
        15.732609748840332
      ],
      "type": "VEC3",
      "bufferView": 0,
      "byteOffset": 27624
    },
    {
      "name": "Inner_corona-Mesh_normals",
      "componentType": 5126,
      "count": 623,
      "min": [
        -1,
        -1,
        -1
      ],
      "max": [
        1,
        1,
        1
      ],
      "type": "VEC3",
      "bufferView": 0,
      "byteOffset": 77676
    },
    {
      "name": "Inner_corona-Mesh_texcoords",
      "componentType": 5126,
      "count": 623,
      "min": [
        0,
        0
      ],
      "max": [
        1,
        1
      ],
      "type": "VEC2",
      "bufferView": 1,
      "byteOffset": 18416
    },
    {
      "name": "Inner_corona-Mesh_0_indices",
      "componentType": 5123,
      "count": 3093,
      "min": [
        0
      ],
      "max": [
        622
      ],
      "type": "SCALAR",
      "bufferView": 2,
      "byteOffset": 25344
    },
    {
      "name": "Outer_corona-Mesh_positions",
      "componentType": 5126,
      "count": 623,
      "min": [
        -24.35836410522461,
        -12.233381271362305,
        -24.34272003173828
      ],
      "max": [
        24.29741668701172,
        12.083951950073242,
        23.327341079711914
      ],
      "type": "VEC3",
      "bufferView": 0,
      "byteOffset": 35100
    },
    {
      "name": "Outer_corona-Mesh_normals",
      "componentType": 5126,
      "count": 623,
      "min": [
        -0.9952999949455261,
        -1,
        -0.9973999857902527
      ],
      "max": [
        0.9997000098228455,
        0.9983999729156494,
        0.9970999956130981
      ],
      "type": "VEC3",
      "bufferView": 0,
      "byteOffset": 85152
    },
    {
      "name": "Outer_corona-Mesh_texcoords",
      "componentType": 5126,
      "count": 623,
      "min": [
        0,
        0
      ],
      "max": [
        1,
        1
      ],
      "type": "VEC2",
      "bufferView": 1,
      "byteOffset": 23400
    },
    {
      "name": "Outer_corona-Mesh_0_indices",
      "componentType": 5123,
      "count": 2958,
      "min": [
        0
      ],
      "max": [
        622
      ],
      "type": "SCALAR",
      "bufferView": 2,
      "byteOffset": 31532
    },
    {
      "name": "Earth-Mesh_positions",
      "componentType": 5126,
      "count": 623,
      "min": [
        -0.12999999523162842,
        -0.12999999523162842,
        15.869999885559082
      ],
      "max": [
        0.12999999523162842,
        0.12999999523162842,
        16.1299991607666
      ],
      "type": "VEC3",
      "bufferView": 0,
      "byteOffset": 42576
    },
    {
      "name": "Earth-Mesh_normals",
      "componentType": 5126,
      "count": 623,
      "min": [
        -1,
        -1,
        -1
      ],
      "max": [
        1,
        1,
        1
      ],
      "type": "VEC3",
      "bufferView": 0,
      "byteOffset": 92628
    },
    {
      "name": "Earth-Mesh_texcoords",
      "componentType": 5126,
      "count": 623,
      "min": [
        0,
        0
      ],
      "max": [
        1,
        1
      ],
      "type": "VEC2",
      "bufferView": 1,
      "byteOffset": 28384
    },
    {
      "name": "Earth-Mesh_0_indices",
      "componentType": 5123,
      "count": 3312,
      "min": [
        0
      ],
      "max": [
        622
      ],
      "type": "SCALAR",
      "bufferView": 2,
      "byteOffset": 37448
    }
  ],
  "asset": {
    "generator": "obj2gltf",
    "version": "2.0"
  },
  "buffers": [
    {
      "name": "sun",
      "byteLength": 2024592,
      "uri": "data:application/octet-stream;base64,"
    }
  ],
  "bufferViews": [
    {
      "name": "bufferView_0",
      "buffer": 0,
      "byteLength": 100104,
      "byteOffset": 0,
      "byteStride": 12,
      "target": 34962
    },
    {
      "name": "bufferView_1",
      "buffer": 0,
      "byteLength": 33368,
      "byteOffset": 100104,
      "byteStride": 8,
      "target": 34962
    },
    {
      "name": "bufferView_2",
      "buffer": 0,
      "byteLength": 44072,
      "byteOffset": 133472,
      "target": 34963
    },
    {
      "buffer": 0,
      "byteOffset": 177544,
      "byteLength": 1123265
    },
    {
      "buffer": 0,
      "byteOffset": 1300809,
      "byteLength": 723781
    }
  ],
  "images": [
    {
      "name": "700328main_20121014_003615_flat",
      "mimeType": "image/jpeg",
      "bufferView": 3
    },
    {
      "name": "Warm earth",
      "mimeType": "image/png",
      "bufferView": 4
    }
  ],
  "materials": [
    {
      "name": "Physical",
      "pbrMetallicRoughness": {
        "baseColorTexture": {
          "index": 0
        },
        "baseColorFactor": [
          1,
          1,
          1,
          1
        ],
        "metallicFactor": 0,
        "roughnessFactor": 0.902858557234856
      },
      "emissiveTexture": {
        "index": 0
      },
      "emissiveFactor": [
        1,
        1,
        1
      ],
      "alphaMode": "OPAQUE",
      "doubleSided": false
    },
    {
      "name": "Physical2",
      "pbrMetallicRoughness": {
        "baseColorFactor": [
          0,
          0,
          0,
          0.5
        ],
        "metallicFactor": 0,
        "roughnessFactor": 0.902858557234856
      },
      "emissiveFactor": [
        0,
        0,
        0
      ],
      "alphaMode": "BLEND",
      "doubleSided": true
    },
    {
      "name": "Physical1",
      "pbrMetallicRoughness": {
        "baseColorFactor": [
          1,
          0,
          0,
          0.1
        ],
        "metallicFactor": 0,
        "roughnessFactor": 0.903921569
      },
      "emissiveFactor": [
        0,
        0,
        0
      ],
      "alphaMode": "BLEND",
      "doubleSided": true
    },
    {
      "name": "Physical3",
      "pbrMetallicRoughness": {
        "baseColorTexture": {
          "index": 1
        },
        "baseColorFactor": [
          1,
          1,
          1,
          1
        ],
        "metallicFactor": 0,
        "roughnessFactor": 0.9027166415485229
      },
      "emissiveFactor": [
        0,
        0,
        0
      ],
      "alphaMode": "OPAQUE",
      "doubleSided": false
    }
  ],
  "meshes": [
    {
      "name": "Sun-Mesh",
      "primitives": [
        {
          "attributes": {
            "POSITION": 0,
            "NORMAL": 1,
            "TEXCOORD_0": 2
          },
          "indices": 3,
          "material": 0,
          "mode": 4
        }
      ]
    },
    {
      "name": "Chromosphere-Mesh",
      "primitives": [
        {
          "attributes": {
            "POSITION": 4,
            "NORMAL": 5,
            "TEXCOORD_0": 6
          },
          "indices": 7,
          "material": 1,
          "mode": 4
        }
      ]
    },
    {
      "name": "Inner_corona-Mesh",
      "primitives": [
        {
          "attributes": {
            "POSITION": 8,
            "NORMAL": 9,
            "TEXCOORD_0": 10
          },
          "indices": 11,
          "material": 2,
          "mode": 4
        }
      ]
    },
    {
      "name": "Outer_corona-Mesh",
      "primitives": [
        {
          "attributes": {
            "POSITION": 12,
            "NORMAL": 13,
            "TEXCOORD_0": 14
          },
          "indices": 15,
          "material": 2,
          "mode": 4
        }
      ]
    },
    {
      "name": "Earth-Mesh",
      "primitives": [
        {
          "attributes": {
            "POSITION": 16,
            "NORMAL": 17,
            "TEXCOORD_0": 18
          },
          "indices": 19,
          "material": 3,
          "mode": 4
        }
      ]
    }
  ],
  "nodes": [
    {
      "name": "Sun",
      "mesh": 0
    },
    {
      "name": "Chromosphere",
      "mesh": 1
    },
    {
      "name": "Inner_corona",
      "mesh": 2
    },
    {
      "name": "Outer_corona",
      "mesh": 3
    },
    {
      "name": "Earth",
      "mesh": 4
    }
  ],
  "samplers": [
    {
      "magFilter": 9729,
      "minFilter": 9986,
      "wrapS": 10497,
      "wrapT": 10497
    }
  ],
  "scene": 0,
  "scenes": [
    {
      "nodes": [
        0,
        1,
        2,
        3,
        4
      ]
    }
  ],
  "textures": [
    {
      "name": "700328main_20121014_003615_flat",
      "sampler": 0,
      "source": 0
    },
    {
      "name": "Warm earth",
      "sampler": 0,
      "source": 1
    }
  ]
}
