{
  "accessors": [
    {
      "name": "pSphere1-Mesh_positions",
      "componentType": 5126,
      "count": 439,
      "min": [
        -0.6419810056686401,
        -0.641979992389679,
        -0.6419810056686401
      ],
      "max": [
        0.641979992389679,
        0.641979992389679,
        0.6419810056686401
      ],
      "type": "VEC3",
      "bufferView": 0,
      "byteOffset": 0
    },
    {
      "name": "pSphere1-Mesh_normals",
      "componentType": 5126,
      "count": 439,
      "min": [
        -1,
        -1,
        -1
      ],
      "max": [
        1,
        1,
        1
      ],
      "type": "VEC3",
      "bufferView": 0,
      "byteOffset": 5268
    },
    {
      "name": "pSphere1-Mesh_texcoords",
      "componentType": 5126,
      "count": 439,
      "min": [
        0,
        0
      ],
      "max": [
        1,
        1
      ],
      "type": "VEC2",
      "bufferView": 1,
      "byteOffset": 0
    },
    {
      "name": "pSphere1-Mesh_0_indices",
      "componentType": 5123,
      "count": 2280,
      "min": [
        0
      ],
      "max": [
        438
      ],
      "type": "SCALAR",
      "bufferView": 2,
      "byteOffset": 0
    }
  ],
  "asset": {
    "generator": "obj2gltf",
    "version": "2.0"
  },
  "buffers": [
    {
      "name": "earth",
      "byteLength": 1312348,
      "uri": "data:application/octet-stream;base64,"
    }
  ],
  "bufferViews": [
    {
      "name": "bufferView_0",
      "buffer": 0,
      "byteLength": 10536,
      "byteOffset": 0,
      "byteStride": 12,
      "target": 34962
    },
    {
      "name": "bufferView_1",
      "buffer": 0,
      "byteLength": 3512,
      "byteOffset": 10536,
      "byteStride": 8,
      "target": 34962
    },
    {
      "name": "bufferView_2",
      "buffer": 0,
      "byteLength": 4560,
      "byteOffset": 14048,
      "target": 34963
    },
    {
      "buffer": 0,
      "byteOffset": 18608,
      "byteLength": 733222
    },
    {
      "buffer": 0,
      "byteOffset": 751830,
      "byteLength": 560515
    }
  ],
  "images": [
    {
      "name": "surface",
      "mimeType": "image/jpeg",
      "bufferView": 3
    },
    {
      "name": "surface_b",
      "mimeType": "image/jpeg",
      "bufferView": 4
    }
  ],
  "materials": [
    {
      "name": "earth",
      "pbrMetallicRoughness": {
        "baseColorTexture": {
          "index": 0
        },
        "baseColorFactor": [
          1,
          1,
          1,
          1
        ],
        "metallicFactor": 0,
        "roughnessFactor": 0.89488235331
      },
      "normalTexture": {
        "index": 1
      },
      "emissiveFactor": [
        0,
        0,
        0
      ],
      "alphaMode": "OPAQUE",
      "doubleSided": false
    }
  ],
  "meshes": [
    {
      "name": "pSphere1-Mesh",
      "primitives": [
        {
          "attributes": {
            "POSITION": 0,
            "NORMAL": 1,
            "TEXCOORD_0": 2
          },
          "indices": 3,
          "material": 0,
          "mode": 4
        }
      ]
    }
  ],
  "nodes": [
    {
      "name": "pSphere1",
      "mesh": 0
    }
  ],
  "samplers": [
    {
      "magFilter": 9729,
      "minFilter": 9986,
      "wrapS": 10497,
      "wrapT": 10497
    }
  ],
  "scene": 0,
  "scenes": [
    {
      "nodes": [
        0
      ]
    }
  ],
  "textures": [
    {
      "name": "surface",
      "sampler": 0,
      "source": 0
    },
    {
      "name": "surface_b",
      "sampler": 0,
      "source": 1
    }
  ]
}
