{
  "accessors": [
    {
      "name": "black_krinkle_Default_008-Mesh_positions",
      "componentType": 5126,
      "count": 40,
      "min": [
        0.43163201212882996,
        -1.4903500080108643,
        -1.1360499858856201
      ],
      "max": [
        3.3931500911712646,
        0.4262300133705139,
        0.6977139711380005
      ],
      "type": "VEC3",
      "bufferView": 0,
      "byteOffset": 0
    },
    {
      "name": "black_krinkle_Default_008-Mesh_normals",
      "componentType": 5126,
      "count": 40,
      "min": [
        -0.9203000068664551,
        -0.9983999729156494,
        -0.8165000081062317
      ],
      "max": [
        0.9203000068664551,
        0.9180999994277954,
        0.8920999765396118
      ],
      "type": "VEC3",
      "bufferView": 0,
      "byteOffset": 413820
    },
    {
      "name": "black_krinkle_Default_008-Mesh_texcoords",
      "componentType": 5126,
      "count": 40,
      "min": [
        0.11279600113630295,
        0.19944700598716736
      ],
      "max": [
        0.5608109831809998,
        0.7387319803237915
      ],
      "type": "VEC2",
      "bufferView": 1,
      "byteOffset": 0
    },
    {
      "name": "black_krinkle_Default_008-Mesh_0_indices",
      "componentType": 5123,
      "count": 204,
      "min": [
        0
      ],
      "max": [
        39
      ],
      "type": "SCALAR",
      "bufferView": 2,
      "byteOffset": 0
    },
    {
      "name": "foil_gold_Default_002-Mesh_positions",
      "componentType": 5126,
      "count": 2637,
      "min": [
        -2.6911699771881104,
        -1.2245800495147705,
        -1.429129958152771
      ],
      "max": [
        4.45359992980957,
        2.347520112991333,
        0.758804976940155
      ],
      "type": "VEC3",
      "bufferView": 0,
      "byteOffset": 480
    },
    {
      "name": "foil_gold_Default_002-Mesh_normals",
      "componentType": 5126,
      "count": 2637,
      "min": [
        -1,
        -1,
        -1
      ],
      "max": [
        1,
        1,
        1
      ],
      "type": "VEC3",
      "bufferView": 0,
      "byteOffset": 414300
    },
    {
      "name": "foil_gold_Default_002-Mesh_texcoords",
      "componentType": 5126,
      "count": 2637,
      "min": [
        0.08207099884748459,
        0.0920339971780777
      ],
      "max": [
        0.8902720212936401,
        0.8686890006065369
      ],
      "type": "VEC2",
      "bufferView": 1,
      "byteOffset": 320
    },
    {
      "name": "foil_gold_Default_002-Mesh_0_indices",
      "componentType": 5123,
      "count": 13812,
      "min": [
        0
      ],
      "max": [
        2636
      ],
      "type": "SCALAR",
      "bufferView": 2,
      "byteOffset": 408
    },
    {
      "name": "shiny_panel_Default_005-Mesh_positions",
      "componentType": 5126,
      "count": 866,
      "min": [
        0.3147200047969818,
        -1.8568400144577026,
        -16.287500381469727
      ],
      "max": [
        0.4004639983177185,
        3.2223598957061768,
        -3.920949935913086
      ],
      "type": "VEC3",
      "bufferView": 0,
      "byteOffset": 32124
    },
    {
      "name": "shiny_panel_Default_005-Mesh_normals",
      "componentType": 5126,
      "count": 866,
      "min": [
        -0.9986000061035156,
        -1,
        -0.8932999968528748
      ],
      "max": [
        0.9986000061035156,
        1,
        0.9986000061035156
      ],
      "type": "VEC3",
      "bufferView": 0,
      "byteOffset": 445944
    },
    {
      "name": "shiny_panel_Default_005-Mesh_texcoords",
      "componentType": 5126,
      "count": 866,
      "min": [
        0.1474429965019226,
        0.010135999880731106
      ],
      "max": [
        0.38700199127197266,
        0.7507950067520142
      ],
      "type": "VEC2",
      "bufferView": 1,
      "byteOffset": 21416
    },
    {
      "name": "shiny_panel_Default_005-Mesh_0_indices",
      "componentType": 5123,
      "count": 2727,
      "min": [
        0
      ],
      "max": [
        865
      ],
      "type": "SCALAR",
      "bufferView": 2,
      "byteOffset": 28032
    },
    {
      "name": "tex_01_Default_006-Mesh_positions",
      "componentType": 5126,
      "count": 14753,
      "min": [
        -4.504310131072998,
        -1.8568400144577026,
        -16.287500381469727
      ],
      "max": [
        4.894410133361816,
        3.2223598957061768,
        1.054610013961792
      ],
      "type": "VEC3",
      "bufferView": 0,
      "byteOffset": 42516
    },
    {
      "name": "tex_01_Default_006-Mesh_normals",
      "componentType": 5126,
      "count": 14753,
      "min": [
        -1,
        -1,
        -1
      ],
      "max": [
        1,
        1,
        1
      ],
      "type": "VEC3",
      "bufferView": 0,
      "byteOffset": 456336
    },
    {
      "name": "tex_01_Default_006-Mesh_texcoords",
      "componentType": 5126,
      "count": 14753,
      "min": [
        -0.17436200380325317,
        0
      ],
      "max": [
        1,
        1
      ],
      "type": "VEC2",
      "bufferView": 1,
      "byteOffset": 28344
    },
    {
      "name": "tex_01_Default_006-Mesh_0_indices",
      "componentType": 5123,
      "count": 56784,
      "min": [
        0
      ],
      "max": [
        14752
      ],
      "type": "SCALAR",
      "bufferView": 2,
      "byteOffset": 33488
    },
    {
      "name": "_root_Cube_004-Mesh_positions",
      "componentType": 5126,
      "count": 8,
      "min": [
        -0.5,
        -0.5,
        -0.5
      ],
      "max": [
        0.5,
        0.5,
        0.5
      ],
      "type": "VEC3",
      "bufferView": 0,
      "byteOffset": 219552
    },
    {
      "name": "_root_Cube_004-Mesh_normals",
      "componentType": 5126,
      "count": 8,
      "min": [
        -0.5774000287055969,
        -0.5774000287055969,
        -0.5774000287055969
      ],
      "max": [
        0.5774000287055969,
        0.5774000287055969,
        0.5774000287055969
      ],
      "type": "VEC3",
      "bufferView": 0,
      "byteOffset": 633372
    },
    {
      "name": "_root_Cube_004-Mesh_0_indices",
      "componentType": 5123,
      "count": 36,
      "min": [
        0
      ],
      "max": [
        7
      ],
      "type": "SCALAR",
      "bufferView": 2,
      "byteOffset": 147056
    },
    {
      "name": "gold_2_Default_000-Mesh_positions",
      "componentType": 5126,
      "count": 9678,
      "min": [
        -0.9729670286178589,
        0.8354790210723877,
        -1.3409700393676758
      ],
      "max": [
        2.8393399715423584,
        0.8927050232887268,
        0.6409729719161987
      ],
      "type": "VEC3",
      "bufferView": 0,
      "byteOffset": 219648
    },
    {
      "name": "gold_2_Default_000-Mesh_normals",
      "componentType": 5126,
      "count": 9678,
      "min": [
        -1,
        -1,
        -1
      ],
      "max": [
        1,
        1,
        1
      ],
      "type": "VEC3",
      "bufferView": 0,
      "byteOffset": 633468
    },
    {
      "name": "gold_2_Default_000-Mesh_texcoords",
      "componentType": 5126,
      "count": 9678,
      "min": [
        0.1385509967803955,
        0.21230700612068176
      ],
      "max": [
        0.836555004119873,
        0.5751850008964539
      ],
      "type": "VEC2",
      "bufferView": 1,
      "byteOffset": 146368
    },
    {
      "name": "gold_2_Default_000-Mesh_0_indices",
      "componentType": 5123,
      "count": 53982,
      "min": [
        0
      ],
      "max": [
        9677
      ],
      "type": "SCALAR",
      "bufferView": 2,
      "byteOffset": 147128
    },
    {
      "name": "foil_silver_Default_001-Mesh_positions",
      "componentType": 5126,
      "count": 6503,
      "min": [
        -2.5262999534606934,
        -1.6618800163269043,
        -1.4675400257110596
      ],
      "max": [
        4.468500137329102,
        1.3450599908828735,
        1.4900000095367432
      ],
      "type": "VEC3",
      "bufferView": 0,
      "byteOffset": 335784
    },
    {
      "name": "foil_silver_Default_001-Mesh_normals",
      "componentType": 5126,
      "count": 6503,
      "min": [
        -1,
        -1,
        -1
      ],
      "max": [
        1,
        1,
        1
      ],
      "type": "VEC3",
      "bufferView": 0,
      "byteOffset": 749604
    },
    {
      "name": "foil_silver_Default_001-Mesh_texcoords",
      "componentType": 5126,
      "count": 6503,
      "min": [
        0.06503400206565857,
        0.01683799922466278
      ],
      "max": [
        0.884926974773407,
        0.9414690136909485
      ],
      "type": "VEC2",
      "bufferView": 1,
      "byteOffset": 223792
    },
    {
      "name": "foil_silver_Default_001-Mesh_0_indices",
      "componentType": 5123,
      "count": 19947,
      "min": [
        0
      ],
      "max": [
        6502
      ],
      "type": "SCALAR",
      "bufferView": 2,
      "byteOffset": 255092
    }
  ],
  "asset": {
    "generator": "obj2gltf",
    "version": "2.0"
  },
  "buffers": [
    {
      "name": "nasa-aqua-satellite",
      "byteLength": 1715180,
      "uri": "data:application/octet-stream;base64,"
    }
  ],
  "bufferViews": [
    {
      "name": "bufferView_0",
      "buffer": 0,
      "byteLength": 827640,
      "byteOffset": 0,
      "byteStride": 12,
      "target": 34962
    },
    {
      "name": "bufferView_1",
      "buffer": 0,
      "byteLength": 275816,
      "byteOffset": 827640,
      "byteStride": 8,
      "target": 34962
    },
    {
      "name": "bufferView_2",
      "buffer": 0,
      "byteLength": 294988,
      "byteOffset": 1103456,
      "target": 34963
    },
    {
      "buffer": 0,
      "byteOffset": 1398444,
      "byteLength": 3627
    },
    {
      "buffer": 0,
      "byteOffset": 1402071,
      "byteLength": 309641
    },
    {
      "buffer": 0,
      "byteOffset": 1711712,
      "byteLength": 3466
    }
  ],
  "images": [
    {
      "name": "foil_gold_ramp",
      "mimeType": "image/png",
      "bufferView": 3
    },
    {
      "name": "foil_n",
      "mimeType": "image/png",
      "bufferView": 4
    },
    {
      "name": "foil_silver_ramp",
      "mimeType": "image/png",
      "bufferView": 5
    }
  ],
  "materials": [
    {
      "name": "black_krinkle",
      "pbrMetallicRoughness": {
        "baseColorFactor": [
          0.690196,
          0.690196,
          0.690196,
          1
        ],
        "metallicFactor": 0,
        "roughnessFactor": 0.8925782572306189
      },
      "emissiveFactor": [
        0,
        0,
        0
      ],
      "alphaMode": "OPAQUE",
      "doubleSided": false
    },
    {
      "name": "foil_gold",
      "pbrMetallicRoughness": {
        "baseColorTexture": {
          "index": 0
        },
        "baseColorFactor": [
          1,
          1,
          1,
          1
        ],
        "metallicFactor": 0,
        "roughnessFactor": 0.8925782572306189
      },
      "emissiveFactor": [
        0,
        0,
        0
      ],
      "alphaMode": "OPAQUE",
      "doubleSided": false
    },
    {
      "name": "shiny_panel",
      "pbrMetallicRoughness": {
        "baseColorTexture": {
          "index": 1
        },
        "baseColorFactor": [
          1,
          1,
          1,
          1
        ],
        "metallicFactor": 0,
        "roughnessFactor": 0.8925782572306189
      },
      "emissiveFactor": [
        0,
        0,
        0
      ],
      "alphaMode": "OPAQUE",
      "doubleSided": false
    },
    {
      "name": "tex_01",
      "pbrMetallicRoughness": {
        "baseColorFactor": [
          0.690196,
          0.690196,
          0.690196,
          1
        ],
        "metallicFactor": 0,
        "roughnessFactor": 0.8925782572306189
      },
      "emissiveFactor": [
        0,
        0,
        0
      ],
      "alphaMode": "OPAQUE",
      "doubleSided": false
    },
    {
      "name": "foil_silver",
      "pbrMetallicRoughness": {
        "baseColorTexture": {
          "index": 2
        },
        "baseColorFactor": [
          1,
          1,
          1,
          1
        ],
        "metallicFactor": 0,
        "roughnessFactor": 0.8925782572306189
      },
      "emissiveFactor": [
        0,
        0,
        0
      ],
      "alphaMode": "OPAQUE",
      "doubleSided": false
    }
  ],
  "meshes": [
    {
      "name": "black_krinkle_Default_008-Mesh",
      "primitives": [
        {
          "attributes": {
            "POSITION": 0,
            "NORMAL": 1,
            "TEXCOORD_0": 2
          },
          "indices": 3,
          "material": 0,
          "mode": 4
        }
      ]
    },
    {
      "name": "foil_gold_Default_002-Mesh",
      "primitives": [
        {
          "attributes": {
            "POSITION": 4,
            "NORMAL": 5,
            "TEXCOORD_0": 6
          },
          "indices": 7,
          "material": 1,
          "mode": 4
        }
      ]
    },
    {
      "name": "shiny_panel_Default_005-Mesh",
      "primitives": [
        {
          "attributes": {
            "POSITION": 8,
            "NORMAL": 9,
            "TEXCOORD_0": 10
          },
          "indices": 11,
          "material": 2,
          "mode": 4
        }
      ]
    },
    {
      "name": "tex_01_Default_006-Mesh",
      "primitives": [
        {
          "attributes": {
            "POSITION": 12,
            "NORMAL": 13,
            "TEXCOORD_0": 14
          },
          "indices": 15,
          "material": 3,
          "mode": 4
        }
      ]
    },
    {
      "name": "_root_Cube_004-Mesh",
      "primitives": [
        {
          "attributes": {
            "POSITION": 16,
            "NORMAL": 17
          },
          "indices": 18,
          "material": 3,
          "mode": 4
        }
      ]
    },
    {
      "name": "gold_2_Default_000-Mesh",
      "primitives": [
        {
          "attributes": {
            "POSITION": 19,
            "NORMAL": 20,
            "TEXCOORD_0": 21
          },
          "indices": 22,
          "material": 1,
          "mode": 4
        }
      ]
    },
    {
      "name": "foil_silver_Default_001-Mesh",
      "primitives": [
        {
          "attributes": {
            "POSITION": 23,
            "NORMAL": 24,
            "TEXCOORD_0": 25
          },
          "indices": 26,
          "material": 4,
          "mode": 4
        }
      ]
    }
  ],
  "nodes": [
    {
      "name": "black_krinkle_Default_008",
      "mesh": 0
    },
    {
      "name": "foil_gold_Default_002",
      "mesh": 1
    },
    {
      "name": "shiny_panel_Default_005",
      "mesh": 2
    },
    {
      "name": "tex_01_Default_006",
      "mesh": 3
    },
    {
      "name": "_root_Cube_004",
      "mesh": 4
    },
    {
      "name": "gold_2_Default_000",
      "mesh": 5
    },
    {
      "name": "foil_silver_Default_001",
      "mesh": 6
    }
  ],
  "samplers": [
    {
      "magFilter": 9729,
      "minFilter": 9986,
      "wrapS": 10497,
      "wrapT": 10497
    }
  ],
  "scene": 0,
  "scenes": [
    {
      "nodes": [
        0,
        1,
        2,
        3,
        4,
        5,
        6
      ]
    }
  ],
  "textures": [
    {
      "name": "foil_gold_ramp",
      "sampler": 0,
      "source": 0
    },
    {
      "name": "foil_n",
      "sampler": 0,
      "source": 1
    },
    {
      "name": "foil_silver_ramp",
      "sampler": 0,
      "source": 2
    }
  ]
}
