{
  "accessors": [
    {
      "name": "Sphere001_1_positions",
      "componentType": 5126,
      "count": 20299,
      "min": [
        -58.44580078125,
        -58.707801818847656,
        -58.960601806640625
      ],
      "max": [
        58.960601806640625,
        58.707801818847656,
        58.44580078125
      ],
      "type": "VEC3",
      "bufferView": 0,
      "byteOffset": 0
    },
    {
      "name": "Sphere001_1_normals",
      "componentType": 5126,
      "count": 20299,
      "min": [
        -0.9998999834060669,
        -1,
        -0.9998999834060669
      ],
      "max": [
        0.9998999834060669,
        1,
        0.9998999834060669
      ],
      "type": "VEC3",
      "bufferView": 0,
      "byteOffset": 243588
    },
    {
      "name": "Sphere001_1_texcoords",
      "componentType": 5126,
      "count": 20299,
      "min": [
        0,
        0
      ],
      "max": [
        1,
        1
      ],
      "type": "VEC2",
      "bufferView": 1,
      "byteOffset": 0
    },
    {
      "name": "Sphere001_1_0_indices",
      "componentType": 5123,
      "count": 118800,
      "min": [
        0
      ],
      "max": [
        20298
      ],
      "type": "SCALAR",
      "bufferView": 2,
      "byteOffset": 0
    }
  ],
  "asset": {
    "generator": "obj2gltf",
    "version": "2.0"
  },
  "buffers": [
    {
      "name": "moon",
      "byteLength": 2652272,
      "uri": "data:application/octet-stream;base64,"
    }
  ],
  "bufferViews": [
    {
      "name": "bufferView_0",
      "buffer": 0,
      "byteLength": 487176,
      "byteOffset": 0,
      "byteStride": 12,
      "target": 34962
    },
    {
      "name": "bufferView_1",
      "buffer": 0,
      "byteLength": 162392,
      "byteOffset": 487176,
      "byteStride": 8,
      "target": 34962
    },
    {
      "name": "bufferView_2",
      "buffer": 0,
      "byteLength": 237600,
      "byteOffset": 649568,
      "target": 34963
    },
    {
      "buffer": 0,
      "byteOffset": 887168,
      "byteLength": 1543505
    },
    {
      "buffer": 0,
      "byteOffset": 2430673,
      "byteLength": 221599
    }
  ],
  "images": [
    {
      "name": "MoonMap2_2500x1250",
      "mimeType": "image/jpeg",
      "bufferView": 3
    },
    {
      "name": "moon-normal",
      "mimeType": "image/jpeg",
      "bufferView": 4
    }
  ],
  "materials": [
    {
      "name": "01___Default",
      "pbrMetallicRoughness": {
        "baseColorTexture": {
          "index": 0
        },
        "baseColorFactor": [
          1,
          1,
          1,
          1
        ],
        "metallicFactor": 0,
        "roughnessFactor": 0.99
      },
      "normalTexture": {
        "index": 1
      },
      "occlusionTexture": {
        "index": 0
      },
      "emissiveFactor": [
        0,
        0,
        0
      ],
      "alphaMode": "OPAQUE",
      "doubleSided": false
    }
  ],
  "meshes": [
    {
      "name": "Sphere001_1",
      "primitives": [
        {
          "attributes": {
            "POSITION": 0,
            "NORMAL": 1,
            "TEXCOORD_0": 2
          },
          "indices": 3,
          "material": 0,
          "mode": 4
        }
      ]
    }
  ],
  "nodes": [
    {
      "name": "Sphere001",
      "mesh": 0
    }
  ],
  "samplers": [
    {
      "magFilter": 9729,
      "minFilter": 9986,
      "wrapS": 10497,
      "wrapT": 10497
    }
  ],
  "scene": 0,
  "scenes": [
    {
      "nodes": [
        0
      ]
    }
  ],
  "textures": [
    {
      "name": "MoonMap2_2500x1250",
      "sampler": 0,
      "source": 0
    },
    {
      "name": "moon-normal",
      "sampler": 0,
      "source": 1
    }
  ]
}
